<svg width="92" height="137" viewBox="0 0 92 137" fill="none" xmlns="http://www.w3.org/2000/svg">
<g opacity="0.9">
<path d="M58.92 45.9025C55.2451 46.209 51.3817 31.4696 43.4667 29.8594C39.1779 28.9871 34.6252 30.0695 29.9325 33.0781C22.4725 37.8619 22.086 45.0842 23.0762 50.3003C24.0934 55.661 26.9107 61.5229 29.6354 67.1921C32.2968 72.7285 35.0481 78.4537 35.7731 83.0291C36.5203 87.7454 33.2947 91.1894 30.1514 90.7658C27.0082 90.3422 26.2431 88.9369 22.7541 83.8019C19.7619 79.398 16.8564 73.5485 14.0465 67.8915C7.67703 55.0683 1.66105 42.9564 -7.95434 40.5596C-11.6294 39.6437 -15.5434 40.2276 -19.2739 42.2479C-24.6789 45.1753 -30.6786 51.1 -28.5671 62.7008C-27.3426 69.4295 -23.7343 76.6968 -20.245 83.7249C-16.4931 91.2814 -9.4379 102.236 -15.5772 105.388C-21.7164 108.539 -25.5092 97.559 -28.5391 92.1923C-31.1932 87.4918 -33.6999 83.052 -36.8601 79.8719C-39.5489 77.166 -44.5836 73.0964 -52.2643 76.6939C-58.5962 79.6606 -60.4708 82.2871 -61.0213 87.4506C-61.6231 93.0938 -55.9793 98.6551 -53.0137 101.159C-52.1027 101.928 -50.5987 101.733 -49.7736 100.74C-49.1239 99.9572 -49.1005 98.9112 -49.7234 98.2203C-53.0984 94.4757 -59.3822 85.6316 -50.0307 82.6622C-43.104 80.4625 -37.2026 94.2145 -34.9685 98.1718C-30.3729 106.311 -29.4801 114.366 -21.1483 116.077C-17.1855 116.891 -13.0584 116.063 -8.88521 113.617C-4.67689 111.15 -0.132835 106.14 -2.38516 96.2769C-3.6318 90.8176 -6.59272 84.8541 -9.72713 78.5405C-12.9313 72.0872 -23.3226 55.0598 -14.6947 51.7553C-7.91603 49.159 -0.865168 64.2309 3.52915 73.0777C10.0791 86.2641 16.2658 98.7196 26.3462 101.104C30.135 102 34.1639 101.368 38.0263 99.2757C38.1617 99.2022 38.2973 99.1269 38.4323 99.0503C43.3052 96.273 48.7719 90.8039 47.1428 80.52C46.2042 74.5948 43.1541 68.2495 40.2048 62.1127C37.7376 56.9799 35.1865 51.6724 34.3965 47.5091C33.5628 43.1153 35.8099 40.1371 40.013 40.2748C44.2162 40.4126 46.6187 47.4816 48.78 51.8354C53.8686 62.0851 67.2691 60.227 71.2357 55.4921C71.7316 54.9001 71.7347 54.7089 72.1588 54.0544C72.5831 53.4003 67.3889 51.1738 67.3889 51.1738C67.3889 51.1738 73.4803 48.0639 73.6105 47.3493C73.9224 45.6348 73.4812 44.2642 72.8547 43.008C71.6629 40.619 62.595 45.596 58.92 45.9025Z" fill="#B3A683"/>
<path d="M74.4698 46.4187C72.1279 45.429 68.2152 46.3567 68.1762 46.3663L68.0645 45.7607C68.2324 45.72 72.1597 44.7901 74.7121 45.8133C75.8399 45.7558 76.6443 44.9388 76.9803 44.5277C77.0858 44.3984 77.2699 44.3507 77.4124 44.4195L77.4278 44.427C77.5957 44.5081 77.6373 44.7135 77.5138 44.8667C77.2278 45.2216 76.6647 45.8115 75.8618 46.1608C76.9102 46.3339 77.5668 45.9922 77.8641 45.7739C77.9851 45.6849 78.1496 45.6832 78.2614 45.7624L78.2731 45.7707C78.4372 45.8871 78.4224 46.1247 78.2446 46.2548C77.6979 46.6556 76.4448 47.2539 74.4698 46.4187Z" fill="#F49878"/>
<path d="M59.6033 40.6558C55.9283 40.9623 52.065 26.2229 44.15 24.6128C39.8612 23.7404 35.3084 24.8228 30.6158 27.8315C23.1558 32.6152 22.7693 39.8375 23.7595 45.0536C24.7767 50.4143 27.594 56.2763 30.3187 61.9454C32.9801 67.4819 35.7317 73.2069 36.4564 77.7825C37.2036 82.4988 33.978 85.9428 30.8347 85.5191C27.6915 85.0955 26.9264 83.6903 23.4374 78.5552C20.4452 74.1513 17.5398 68.3019 14.7298 62.6448C8.36034 49.8216 2.34435 37.7098 -7.27103 35.313C-10.9461 34.397 -14.8601 34.9809 -18.5906 37.0013C-23.9956 39.9286 -29.9953 45.8533 -27.8838 57.4541C-26.6593 64.1829 -23.051 71.4501 -19.5617 78.4782C-15.8098 86.0347 -8.75461 96.9897 -14.8939 100.141C-21.0332 103.292 -24.8259 92.3123 -27.8558 86.9456C-30.5099 82.2451 -33.0166 77.8053 -36.1768 74.6252C-38.8656 71.9193 -43.9003 67.8498 -51.581 71.4472C-57.9129 74.4139 -59.7875 77.0405 -60.338 82.2039C-60.9398 87.8472 -55.296 93.4084 -52.3304 95.9122C-51.4194 96.6813 -49.9154 96.4862 -49.0903 95.4929C-48.4406 94.7105 -48.4172 93.6645 -49.0401 92.9736C-52.4151 89.229 -58.699 80.3849 -49.3474 77.4155C-42.4207 75.2159 -36.5193 88.9678 -34.2852 92.9251C-29.6896 101.064 -28.7969 109.119 -20.465 110.831C-16.5022 111.645 -12.3756 110.816 -8.20192 108.37C-3.99359 105.904 0.55046 100.893 -1.70186 91.0302C-2.9485 85.5709 -5.90942 79.6074 -9.04383 73.2938C-12.248 66.8405 -22.6393 49.8132 -14.0115 46.5086C-7.23274 43.9123 -0.181872 58.9843 4.21245 67.831C10.7624 81.0174 16.9491 93.4729 27.0295 95.8573C30.8183 96.7535 34.8472 96.1212 38.7096 94.029C38.845 93.9556 38.9806 93.8803 39.1156 93.8036C43.9885 91.0263 49.4552 85.5572 47.826 75.2733C46.8875 69.3481 43.8374 63.0029 40.8881 56.8661C38.4209 51.7332 35.8699 46.426 35.0798 42.2624C34.2461 37.8687 36.4932 34.8904 40.6963 35.0281C44.8992 35.166 47.302 42.2349 49.4633 46.5887C54.5519 56.8384 67.9524 54.9803 71.919 50.2454C72.4149 49.6535 72.4179 49.4622 72.8421 48.8078C73.2664 48.1536 68.0722 45.9271 68.0722 45.9271C68.0722 45.9271 74.1636 42.8172 74.2938 42.1027C74.6057 40.3881 74.1645 39.0175 73.538 37.7613C72.3462 35.3724 63.2783 40.3493 59.6033 40.6558Z" fill="#F7C634"/>
<path d="M72.7393 42.814L73.6483 44.0721C73.7889 44.2669 74.1359 44.1298 74.114 43.8882L73.9651 42.2467L72.7393 42.814Z" fill="#F7C634"/>
<path d="M70.5856 48.253L72.5333 46.8552C72.6221 46.7916 72.739 46.8564 72.7125 46.9552L72.1821 48.9405L70.5856 48.253Z" fill="#F7C634"/>
<path d="M63.9048 45.854C65.5169 44.9809 66.4418 43.5896 65.9705 42.7466C65.4993 41.9037 63.8104 41.9281 62.1983 42.8013C60.5862 43.6745 59.6613 45.0657 60.1326 45.9087C60.6038 46.7517 62.2927 46.7272 63.9048 45.854Z" fill="white"/>
<path d="M63.904 45.854C64.8235 45.3559 65.187 44.2688 64.7157 43.4258C64.2445 42.5828 63.117 42.3032 62.1974 42.8013C61.2778 43.2994 60.9144 44.3865 61.3856 45.2295C61.8569 46.0725 62.9844 46.3521 63.904 45.854Z" fill="#284048"/>
<mask id="mask0_278_142451" style="mask-type:luminance" maskUnits="userSpaceOnUse" x="-61" y="24" width="136" height="88">
<path d="M59.6033 40.6558C55.9283 40.9623 52.065 26.2229 44.15 24.6128C39.8612 23.7404 35.3084 24.8228 30.6158 27.8315C23.1558 32.6152 22.7693 39.8375 23.7595 45.0536C24.7767 50.4143 27.594 56.2763 30.3187 61.9454C32.9801 67.4819 35.7317 73.2069 36.4564 77.7825C37.2036 82.4988 33.978 85.9428 30.8347 85.5191C27.6915 85.0955 26.9264 83.6903 23.4374 78.5552C20.4452 74.1513 17.5398 68.3019 14.7298 62.6448C8.36034 49.8216 2.34435 37.7098 -7.27103 35.313C-10.9461 34.397 -14.8601 34.9809 -18.5906 37.0013C-23.9956 39.9286 -29.9953 45.8533 -27.8838 57.4541C-26.6593 64.1829 -23.051 71.4501 -19.5617 78.4782C-15.8098 86.0347 -8.75461 96.9897 -14.8939 100.141C-21.0332 103.292 -24.8259 92.3123 -27.8558 86.9456C-30.5099 82.2451 -33.0166 77.8053 -36.1768 74.6252C-38.8656 71.9193 -43.9003 67.8498 -51.581 71.4472C-57.9129 74.4139 -59.7875 77.0405 -60.338 82.2039C-60.9398 87.8472 -55.296 93.4084 -52.3304 95.9122C-51.4194 96.6813 -49.9154 96.4862 -49.0903 95.4929C-48.4406 94.7105 -48.4172 93.6645 -49.0401 92.9736C-52.4151 89.229 -58.699 80.3849 -49.3474 77.4155C-42.4207 75.2159 -36.5193 88.9678 -34.2852 92.9251C-29.6896 101.064 -28.7969 109.119 -20.465 110.831C-16.5022 111.645 -12.3756 110.816 -8.20192 108.37C-3.99359 105.904 0.55046 100.893 -1.70186 91.0302C-2.9485 85.5709 -5.90942 79.6074 -9.04383 73.2938C-12.248 66.8405 -22.6393 49.8132 -14.0115 46.5086C-7.23274 43.9123 -0.181872 58.9843 4.21245 67.831C10.7624 81.0174 16.9491 93.4729 27.0295 95.8573C30.8183 96.7535 34.8472 96.1212 38.7096 94.029C38.845 93.9556 38.9806 93.8803 39.1156 93.8036C43.9885 91.0263 49.4552 85.5572 47.826 75.2733C46.8875 69.3481 43.8374 63.0029 40.8881 56.8661C38.4209 51.7332 35.8699 46.426 35.0798 42.2624C34.2461 37.8687 36.4932 34.8904 40.6963 35.0281C44.8992 35.166 47.302 42.2349 49.4633 46.5887C54.5519 56.8384 67.3104 52.386 71.2771 47.6511C71.773 47.0591 72.3213 46.2569 72.7455 45.6025C73.1698 44.9484 70.1417 45.2913 70.1417 45.2913C70.1417 45.2913 74.1636 42.8172 74.2938 42.1027C74.6057 40.3881 74.1645 39.0175 73.538 37.7613C72.3462 35.3724 63.2783 40.3493 59.6033 40.6558Z" fill="white"/>
</mask>
<g mask="url(#mask0_278_142451)">
<path d="M-8.40985 51.0741L0.181522 33.9086L4.31811 38.9428L-6.90755 53.1702L-8.40985 51.0741Z" fill="#353C44"/>
<path d="M-3.68153 61.8987L12.2968 54.9909L14.4196 58.7881L0.0641198 68.6L-3.68153 61.8987Z" fill="#353C44"/>
<path d="M6.82293 78.325L20.5417 69.1489L23.9128 75.1801L8.4336 82.9815L6.82293 78.325Z" fill="#353C44"/>
<path d="M21.5887 100.009L29.5516 82.3105L32.706 83.2209L34.1179 98.1697L21.5887 100.009Z" fill="#353C44"/>
<path d="M32.7758 73.2897L31.4024 70.8325L48.8915 64.8522L51.3886 69.3197L32.7758 73.2897Z" fill="#353C44"/>
<path d="M22.3168 50.4372L24.7977 57.2415L41.0135 52.5329L40.9051 49.9725L22.3168 50.4372Z" fill="#353C44"/>
<path d="M20.2719 35.5401L38.4402 40.8317L40.2212 39.2852L25.019 25.6943L20.2719 35.5401Z" fill="#353C44"/>
<path d="M55.2315 27.3466L42.9214 43.4423L45.2471 46.1974L60.7578 31.2265L55.2315 27.3466Z" fill="#353C44"/>
</g>
<mask id="mask1_278_142451" style="mask-type:luminance" maskUnits="userSpaceOnUse" x="-61" y="24" width="136" height="88">
<path d="M59.6033 40.6558C55.9283 40.9623 52.065 26.2229 44.15 24.6128C39.8612 23.7404 35.3084 24.8228 30.6158 27.8315C23.1558 32.6152 22.7693 39.8375 23.7595 45.0536C24.7767 50.4143 27.594 56.2763 30.3187 61.9454C32.9801 67.4819 35.7317 73.2069 36.4564 77.7825C37.2036 82.4988 33.978 85.9428 30.8347 85.5191C27.6915 85.0955 26.9264 83.6903 23.4374 78.5552C20.4452 74.1513 17.5398 68.3019 14.7298 62.6448C8.36034 49.8216 2.34435 37.7098 -7.27103 35.313C-10.9461 34.397 -14.8601 34.9809 -18.5906 37.0013C-23.9956 39.9286 -29.9953 45.8533 -27.8838 57.4541C-26.6593 64.1829 -23.051 71.4501 -19.5617 78.4782C-15.8098 86.0347 -8.75461 96.9897 -14.8939 100.141C-21.0332 103.292 -24.8259 92.3123 -27.8558 86.9456C-30.5099 82.2451 -33.0166 77.8053 -36.1768 74.6252C-38.8656 71.9193 -43.9003 67.8498 -51.581 71.4472C-57.9129 74.4139 -59.7875 77.0405 -60.338 82.2039C-60.9398 87.8472 -55.296 93.4084 -52.3304 95.9122C-51.4194 96.6813 -49.9154 96.4862 -49.0903 95.4929C-48.4406 94.7105 -48.4172 93.6645 -49.0401 92.9736C-52.4151 89.229 -58.699 80.3849 -49.3474 77.4155C-42.4207 75.2159 -36.5193 88.9678 -34.2852 92.9251C-29.6896 101.064 -28.7969 109.119 -20.465 110.831C-16.5022 111.645 -12.3756 110.816 -8.20192 108.37C-3.99359 105.904 0.55046 100.893 -1.70186 91.0302C-2.9485 85.5709 -5.90942 79.6074 -9.04383 73.2938C-12.248 66.8405 -22.6393 49.8132 -14.0115 46.5086C-7.23274 43.9123 -0.181872 58.9843 4.21245 67.831C10.7624 81.0174 16.9491 93.4729 27.0295 95.8573C30.8183 96.7535 34.8472 96.1212 38.7096 94.029C38.845 93.9556 38.9806 93.8803 39.1156 93.8036C43.9885 91.0263 49.4552 85.5572 47.826 75.2733C46.8875 69.3481 43.8374 63.0029 40.8881 56.8661C38.4209 51.7332 35.8699 46.426 35.0798 42.2624C34.2461 37.8687 36.4932 34.8904 40.6963 35.0281C44.8992 35.166 47.302 42.2349 49.4633 46.5887C54.5519 56.8384 67.3104 52.386 71.2771 47.6511C71.773 47.0591 72.3213 46.2569 72.7455 45.6025C73.1698 44.9484 70.1417 45.2913 70.1417 45.2913C70.1417 45.2913 74.1636 42.8172 74.2938 42.1027C74.6057 40.3881 74.1645 39.0175 73.538 37.7613C72.3462 35.3724 63.2783 40.3493 59.6033 40.6558Z" fill="white"/>
</mask>
<g mask="url(#mask1_278_142451)">
<path d="M-4.27807 56.6927L9.31598 47.2934L10.4396 49.3036L-5.0599 60.0262L-6.05877 58.2391L-4.27807 56.6927Z" fill="#BD5021"/>
<path d="M2.69812 71.5386L17.8027 63.067L18.5476 64.9913L2.9274 74.9062L2.69812 71.5386Z" fill="#BD5021"/>
<path d="M13.444 89.5794L25.7891 77.9464L26.917 79.3726L15.7037 91.8473L13.444 89.5794Z" fill="#BD5021"/>
<path d="M32.0725 83.273L32.8506 80.5236L49.5207 83.1348L49.2337 87.946L32.0725 83.273Z" fill="#BD5021"/>
<path d="M27.9062 64.5786L43.0063 56.6914L44.5048 59.3716L28.8925 68.1182L27.9062 64.5786Z" fill="#BD5021"/>
<path d="M20.3385 43.9427L39.189 42.172L39.68 44.2338L19.5607 46.6917L20.3385 43.9427Z" fill="#BD5021"/>
<path d="M45.1502 21.4839L41.6133 21.0717L40.221 39.2853L42.9966 40.1098L45.1502 21.4839Z" fill="#BD5021"/>
<path d="M-16.6629 91.9178L-16.0467 94.2028L2.53724 94.3225L1.92957 90.8689L-16.6629 91.9178Z" fill="#BD5021"/>
</g>
<path d="M59.9976 49.753C61.2755 49.1394 62.0856 48.1717 61.807 47.5915C61.5284 47.0114 60.2667 47.0385 58.9888 47.6521C57.7109 48.2657 56.9008 49.2334 57.1793 49.8135C57.4579 50.3937 58.7197 50.3666 59.9976 49.753Z" fill="#BD5021"/>
</g>
</svg>
