<svg width="97" height="77" viewBox="0 0 97 77" fill="none" xmlns="http://www.w3.org/2000/svg">
<path d="M73.5599 71.2138C74.6384 71.502 75.5642 72.3924 76.6794 72.3424C78.0154 72.2823 78.8872 70.9197 79.3254 69.6564C80.2291 67.0524 80.3225 64.177 81.5638 61.7158C81.8306 61.1862 82.1314 60.4912 81.7205 60.063C81.5825 59.919 81.3897 59.8449 81.2103 59.7589C80.3305 59.3367 79.6475 58.5223 79.3854 57.5825C79.322 57.3564 79.2507 57.0862 79.0279 57.0109C78.8978 56.9669 78.7571 57.0075 78.6237 57.0389C77.4611 57.3137 76.2139 56.8488 75.3141 56.0617C74.415 55.2747 73.816 54.2015 73.3331 53.1083C72.2412 50.6371 71.6523 47.9031 71.9458 45.2171C72.1419 43.4189 72.7662 41.6534 73.7747 40.16C71.146 40.4788 69.1177 40.955 69.1177 40.955C69.1177 40.955 68.398 50.2649 71.2121 54.2168C74.0268 58.1694 79.1319 58.6924 78.2809 63.0125C77.4298 67.3326 77.0369 69.6891 74.7465 69.7544C72.9456 69.8058 71.9144 69.535 71.745 71.2592C72.344 71.0951 72.9609 71.0537 73.5599 71.2138Z" fill="#AF8242"/>
<path d="M83.0605 55.6823C84.4352 52.6062 87.7088 46.7153 85.0902 42.2644C83.4914 39.5471 77.8953 39.6605 73.776 40.1607C72.7675 41.6541 72.1432 43.4197 71.9471 45.2179C71.6543 47.9039 72.2425 50.6379 73.3344 53.1091C73.8173 54.2023 74.4163 55.2748 75.3154 56.0625C76.2145 56.8496 77.4618 57.3145 78.625 57.0397C78.7584 57.0083 78.8991 56.9676 79.0292 57.0117C79.2513 57.087 79.3233 57.3571 79.3867 57.5833C79.6488 58.5231 80.3312 59.3375 81.2116 59.7597C81.3917 59.8457 81.5844 59.9204 81.7218 60.0638C82.1327 60.492 81.8319 61.187 81.5651 61.7166C80.3238 64.1778 80.2311 67.0532 79.3267 69.6572C78.8885 70.9205 78.016 72.2824 76.6807 72.3431C75.5655 72.3932 74.6397 71.5027 73.5612 71.2146C72.9616 71.0545 72.3446 71.0959 71.7483 71.2599C71.7023 71.7295 71.7196 72.3458 71.8043 73.1589C71.8043 73.1589 72.4586 74.9264 79.266 74.3368C79.266 74.3368 85.1569 63.9951 85.0915 61.9661C85.0241 59.9364 81.6865 58.7585 83.0605 55.6823Z" fill="#C19459"/>
<path d="M44.4121 67.4987C43.6103 66.3755 43.4316 64.9068 43.5897 63.5355C43.619 63.2807 43.659 63.0219 43.6137 62.7691C43.5656 62.5043 43.4276 62.2669 43.2969 62.0314C41.6661 59.0933 40.9277 55.7183 40.7983 52.3607C40.7149 50.2043 40.8763 48.0492 41.1711 45.9089C37.2659 43.3203 32.2761 41.372 32.2761 41.372C32.2761 41.372 35.6685 52.384 37.7822 58.1122C39.8959 63.8403 41.1191 66.7884 41.1191 66.7884L39.6731 70.2921C39.6731 70.2921 37.1145 68.3458 36.8924 70.2921C36.841 70.7437 36.817 71.1639 36.8097 71.5447C36.8304 71.5347 36.8497 71.5214 36.871 71.5114C37.4627 71.2312 38.157 71.1092 38.7766 71.3193C39.2816 71.4907 39.6884 71.8609 40.1173 72.1777C40.5462 72.4945 41.0524 72.7747 41.5827 72.718C41.9355 72.6806 42.2537 72.4979 42.5785 72.3558C43.1948 72.087 43.9558 71.9809 44.5268 72.2958C44.5888 71.4207 44.8476 70.2895 45.6793 69.4577C45.8935 69.2436 46.0529 69.0242 46.1749 68.8014C45.4779 68.5673 44.8409 68.0997 44.4121 67.4987Z" fill="#AF8241"/>
<path d="M45.6791 64.5078C45.2342 62.9504 46.6802 55.3314 45.6791 50.7711C45.3129 49.1036 43.4213 47.4001 41.1709 45.9088C40.8754 48.0485 40.7146 50.2035 40.798 52.3606C40.9274 55.7182 41.6658 59.0932 43.2966 62.0313C43.4273 62.2661 43.5654 62.5042 43.6134 62.769C43.6588 63.0218 43.6187 63.2806 43.5894 63.5354C43.4313 64.9067 43.6101 66.3754 44.4118 67.4986C44.8407 68.0996 45.4776 68.5672 46.1746 68.8013C46.9397 67.4013 46.0633 65.8512 45.6791 64.5078Z" fill="#C19459"/>
<path d="M42.579 72.3564C42.2535 72.4985 41.936 72.6805 41.5832 72.7186C41.0529 72.7753 40.5466 72.4944 40.1178 72.1783C39.6889 71.8615 39.282 71.4913 38.7771 71.3199C38.1575 71.1098 37.4631 71.2318 36.8715 71.512C36.8502 71.522 36.8315 71.5353 36.8102 71.5453C36.7855 72.8073 36.9489 73.629 36.9489 73.629H43.2146C43.9156 73.629 44.4792 73.0754 44.5206 72.3757C44.5219 72.3504 44.5259 72.3224 44.5273 72.2964C43.957 71.9809 43.1953 72.0876 42.579 72.3564Z" fill="#C19459"/>
<path d="M30.8182 73.9591C30.36 74.9315 30.0532 75.7286 30.0532 75.7286C26.9763 77.0639 23.6961 75.6686 23.6961 75.6686C22.4688 76.0274 22.0059 74.5927 22.0059 74.5927C21.9899 73.943 22.0139 73.3848 22.0619 72.9146C22.6996 73.11 23.4293 73.3568 23.9909 73.6282C25.2702 74.2419 26.1033 73.7396 28.9927 73.6282C29.8337 73.5962 30.4154 73.7356 30.8182 73.9591Z" fill="#FCE8CD"/>
<path d="M77.4637 44.3006C73.5698 43.8384 67.3674 47.8877 60.3967 51.116C53.426 54.3442 46.5579 51.6816 46.5579 51.6816L47.7058 53.2557C47.8212 53.4151 47.7538 53.6506 47.5664 53.7139C41.7036 55.7309 38.5107 51.0153 38.5107 51.0153C38.5107 51.0153 39.5032 50.1662 38.5107 48.3446C37.5182 46.5271 37.4268 45.3872 37.4268 45.3872C37.4268 45.3872 47.8893 52.7128 57.1685 48.7115C66.451 44.7055 68.544 41.023 76.5473 42.6612L77.4637 44.3006Z" fill="#FFDAA9"/>
<path d="M102.168 57.7293C100.521 56.5161 98.8473 56.404 98.6772 51.1941C98.5465 51.7751 98.4097 52.3547 98.263 52.9323C97.9902 54.0048 97.688 55.0927 97.7401 56.1979C97.7921 57.3038 98.2683 58.4557 99.2214 59.0179C99.5256 59.1974 99.8731 59.3161 100.127 59.5622C100.523 59.9464 100.599 60.5447 100.648 61.0943C101.043 65.5051 101.181 69.9386 101.06 74.3655C100.664 73.7812 99.8377 73.6824 99.1407 73.7912C98.4437 73.8999 97.7527 74.158 97.0531 74.072C96.194 73.9666 95.463 73.3596 94.6065 73.2349C93.9175 73.1348 93.2599 73.3583 92.6429 73.7025C92.5415 74.6109 92.5855 75.2579 92.5855 75.2579C92.5855 75.2579 94.2757 75.7721 95.4036 75.6167C95.4036 75.6167 98.5284 77.4623 102.937 75.4133C102.937 75.4133 103.347 72.7987 103.554 70.2875C103.758 67.7769 104.32 59.3194 102.168 57.7293Z" fill="#FFDAA9"/>
<path d="M128.885 68.7615C127.653 69.5345 126.034 70.2762 124.026 70.619C123.281 70.7464 122.475 70.8225 121.619 70.8225C119.789 70.8225 117.713 70.4876 115.397 69.6346C105.975 66.1669 104.205 51.9459 102.918 41.5628C102.492 38.1552 102.093 34.9343 101.526 33.3601C100.833 31.4392 99.6176 29.9525 98.3456 28.8326C98.477 29.3989 98.529 29.7451 98.529 29.7451C98.529 29.7451 100.171 33.0774 98.9913 44.7631C98.7125 47.5131 98.6244 49.5901 98.6764 51.1922C98.549 51.7745 98.4096 52.3561 98.2616 52.9297C97.9908 54.0056 97.688 55.0901 97.7393 56.198C97.7913 57.3019 98.2696 58.4538 99.222 59.016C99.5249 59.1955 99.8757 59.3148 100.127 59.5623C100.522 59.9452 100.597 60.5428 100.649 61.093C101.044 65.5052 101.18 69.9374 101.06 74.3655C100.665 73.7793 99.8403 73.6839 99.1433 73.7913C98.4457 73.8986 97.7567 74.1581 97.055 74.0701C96.1939 73.9667 95.4649 73.3604 94.6078 73.233C93.9181 73.1336 93.2605 73.3564 92.6428 73.7032C92.6989 73.233 92.7862 72.6907 92.9456 72.1331C93.4039 70.491 96.4293 72.0811 97.5052 70.9532C98.5811 69.8253 96.6321 61.9335 95.815 61.1644C94.994 60.3954 92.4314 60.9089 85.8708 55.6797C79.3103 50.4505 77.4647 44.3002 77.4647 44.3002L76.5483 42.662C68.545 41.0239 66.452 44.707 57.1695 48.7123C47.8909 52.7143 37.4278 45.388 37.4278 45.388C37.4278 45.388 37.5192 46.5279 38.5117 48.3455C39.5042 50.167 38.5117 51.0161 38.5117 51.0161C38.5117 51.0161 33.5373 64.444 33.3859 66.0821C33.2304 67.7243 34.4624 69.8246 33.079 70.6457C32.294 71.1119 31.4249 72.6827 30.8193 73.958C30.4164 73.7346 29.8348 73.5952 28.9937 73.6272C26.1043 73.7386 25.2712 74.2408 23.9919 73.6272C23.4297 73.3564 22.7006 73.1089 22.063 72.9135C22.3738 69.912 23.8325 70.2068 25.0324 70.6971C26.4158 71.2594 27.0694 70.9525 27.0694 70.9525C27.0694 70.9525 27.2368 69.7213 27.8505 68.5927C28.4641 67.4688 28.6195 66.3409 27.8505 62.4424C27.0814 58.5485 25.8495 46.6587 25.8495 46.6587C23.4383 44.1194 22.2864 38.7188 21.9556 36.9092C21.8842 36.5264 21.8522 36.3036 21.8522 36.3036C21.8522 36.3036 19.6478 32.7685 17.2927 28.1529C16.695 26.985 15.898 26.1159 15.0449 25.4823C14.0644 24.7446 13.0039 24.3144 12.0834 24.0596C12.7011 23.1191 12.8805 20.6439 11.888 19.1692C10.8715 17.6625 8.52436 18.8504 6.8342 19.0338C5.14404 19.2172 6.72282 17.4671 4.87325 16.1637C3.76937 15.3867 2.43005 16.61 1.52894 17.7185C0.875292 16.5986 0.209631 15.4107 0.0182039 14.8805C-0.391997 13.7526 6.68213 10.6237 6.68213 10.6237C6.68213 10.6237 7.14436 9.0376 7.6546 8.11248C8.16886 7.19203 14.8808 5.08767 14.8808 5.08767C14.8808 5.08767 16.1641 0.117236 16.8298 0.0138526C17.4954 -0.0855293 18.2645 0.324668 18.7267 2.06619C19.1456 3.64429 20.07 5.26709 20.2374 5.55789C20.2574 5.58591 20.2654 5.60192 20.2654 5.60192C20.2654 5.60192 24.7736 9.13698 26.4671 10.9825C28.1573 12.8281 33.2311 15.4941 33.2311 15.4941C38.9706 14.8284 41.7406 17.0328 44.2518 18.8264C46.7631 20.6199 51.5814 20.9267 51.5814 20.9267C64.7545 20.9267 67.4205 19.9543 75.209 18.8777C83.0008 17.8019 90.279 18.3635 93.9701 21.1335C94.0575 21.2015 94.1416 21.2689 94.2289 21.3369C94.4877 21.3289 94.7552 21.361 95.018 21.4443C95.3528 21.5517 103.277 24.115 106.027 31.7354C106.772 33.8117 107.167 36.9726 107.665 40.9705C108.737 49.6154 110.363 62.6811 117.047 65.1444C119.319 65.9774 121.404 66.2282 123.273 65.8934C124.369 65.702 125.39 65.3038 126.334 64.7095C127.45 64.0078 128.929 64.3426 129.63 65.4592C130.335 66.5777 130 68.0564 128.885 68.7615Z" fill="#F9BA5D"/>
<path d="M12.0819 24.0615C10.6552 23.6627 9.55066 23.6947 9.55066 23.6947C8.72959 24.2089 7.29489 24.0535 7.29489 24.0535C6.06762 25.8991 4.88772 24.978 4.88772 24.978C0.582944 25.3968 2.50789 21.1281 2.91875 20.2983C2.96277 20.207 2.99012 20.1589 2.99012 20.1589C2.99012 20.1589 2.2691 18.987 1.5274 17.7197C2.42785 16.6119 3.76717 15.3879 4.87171 16.165C6.72128 17.4683 5.14251 19.2178 6.83267 19.0351C8.52283 18.8516 10.87 17.6637 11.8865 19.1705C12.879 20.6458 12.6995 23.1211 12.0819 24.0615Z" fill="#FFDAA9"/>
<path d="M7.15375 11.7694C7.15375 11.7694 8.55176 9.34889 9.55092 9.39691C10.5494 9.44427 11.9981 10.1093 11.0723 12.3177C10.1465 14.5261 7.47657 13.4963 7.15441 13.1014C6.83159 12.7059 7.15375 11.7694 7.15375 11.7694Z" fill="#FFF6E9"/>
<path d="M10.0756 11.3218C9.08113 9.67836 6.83203 12.7058 6.83203 12.7058L7.70046 12.3884C7.70046 12.3884 8.34144 12.1983 9.3626 12.1269C10.3838 12.0562 10.0756 11.3218 10.0756 11.3218Z" fill="#70400B"/>
<path d="M2.4967 14.5244C2.4967 14.5244 1.38349 17.0116 0.923264 16.6675C0.463039 16.3233 2.4967 14.5244 2.4967 14.5244Z" fill="#70400B"/>
<path d="M5.73283 21.8259C4.27812 21.1602 3.50508 20.6099 2.91879 20.2991C2.96281 20.2077 2.99016 20.1597 2.99016 20.1597C2.99016 20.1597 4.66031 20.5979 5.65279 20.0243C6.64528 19.4547 7.97259 18.9124 8.57422 20.1757C9.17251 21.435 7.89655 22.8137 5.73283 21.8259Z" fill="#70400B"/>
<path d="M21.9547 36.9118C21.8833 36.5289 21.8513 36.3062 21.8513 36.3062C21.8513 36.3062 19.6469 32.7711 17.2917 28.1555C16.6941 26.9876 15.897 26.1185 15.0439 25.4849L18.9779 22.7269C18.9779 22.7269 20.7314 25.7203 21.7119 27.9921C22.6597 30.1832 24.1384 33.9143 21.9547 36.9118Z" fill="#FFDAA9"/>
<path d="M14.7708 6.89095C14.7495 6.88962 14.7315 6.90429 14.7295 6.92497C14.6888 7.41855 14.0732 12.8932 14.7655 14.1152C15.4905 15.3944 16.2582 16.6744 16.2582 16.6744C16.2582 16.6744 13.0593 19.5752 11.3959 23.4137C11.3959 23.4137 10.2226 23.0822 9.55096 23.6958C9.55096 23.6958 9.73238 28.5322 12.2916 28.4895C14.8509 28.4468 21.8036 23.6271 22.5713 18.7214C23.339 13.8157 18.9882 10.4894 17.4101 9.16673C15.868 7.87544 15.3204 6.93231 14.7708 6.89095Z" fill="#FFF6E9"/>
<path d="M20.6286 12.7505C19.6148 12.8099 18.6296 12.924 17.6365 13.0073C17.1396 13.0534 16.6473 13.1027 16.1604 13.1054C15.6742 13.1041 15.1859 13.0567 14.713 12.8679C15.1079 13.1928 15.6302 13.3622 16.1424 13.4149C16.6587 13.4769 17.1702 13.4422 17.6725 13.4042C18.679 13.3088 19.6808 13.1181 20.6286 12.7505Z" fill="#FFDAA9"/>
<path d="M17.005 17.6978C17.4592 18.4054 18.1215 18.9644 18.8519 19.3806C19.5876 19.7874 20.4107 20.0609 21.2511 20.0789C20.4807 19.7514 19.7477 19.4319 19.0467 19.0331C18.341 18.6442 17.6847 18.1853 17.005 17.6978Z" fill="#FFDAA9"/>
<path d="M18.7568 17.6663C19.2004 18.2199 19.7993 18.6261 20.439 18.9216C21.0833 19.2064 21.785 19.3858 22.4933 19.3511C21.843 19.0743 21.2167 18.8409 20.6024 18.5588C19.9848 18.286 19.3945 17.9705 18.7568 17.6663Z" fill="#FFDAA9"/>
<path d="M11.3221 23.2964C11.3535 23.9581 11.5869 24.5904 11.9118 25.1607C12.2459 25.725 12.6801 26.2406 13.2411 26.5941C12.9109 26.0231 12.5674 25.5055 12.2566 24.9599C11.9344 24.4203 11.6543 23.8654 11.3221 23.2964Z" fill="#FFDAA9"/>
<path d="M12.2811 22.5226C12.3518 23.1769 12.5966 23.7892 12.9134 24.3548C13.2402 24.9144 13.6451 25.4353 14.1747 25.8262C13.8899 25.2352 13.5664 24.7036 13.2589 24.1567C12.9414 23.6151 12.6466 23.0668 12.2811 22.5226Z" fill="#FFDAA9"/>
<path d="M20.2364 5.55958C20.097 7.75598 19.4913 9.99574 17.5697 9.83633C13.8553 9.52151 14.8791 5.08935 14.8791 5.08935C14.8791 5.08935 16.1624 0.118915 16.828 0.0155309C17.4937 -0.083851 18.2628 0.326352 18.725 2.06787C19.1445 3.64598 20.069 5.2681 20.2364 5.55958Z" fill="#70400B"/>
<path d="M15.2456 7.06115C15.2456 7.06115 14.9341 5.77786 15.4157 4.21176C15.8973 2.64566 16.5489 0.335863 16.7757 0.566643C17.0025 0.797422 17.6261 8.70395 17.0872 8.78132C16.5489 8.85803 15.3437 8.03763 15.2456 7.06115Z" fill="#FCE8CD"/>
<mask id="mask0_278_142501" style="mask-type:luminance" maskUnits="userSpaceOnUse" x="0" y="0" width="130" height="77">
<path d="M129.631 65.4613C128.927 64.3441 127.451 64.0093 126.333 64.7137C123.776 66.3264 120.65 66.4712 117.046 65.1445C110.361 62.684 108.737 49.6176 107.663 40.9714C107.166 36.9734 106.773 33.8152 106.024 31.7382C103.276 24.1171 95.3538 21.5519 95.0177 21.4465C94.7542 21.3638 94.4881 21.3318 94.2273 21.3398C94.1426 21.2704 94.0572 21.201 93.9692 21.135C90.278 18.365 83.0005 17.8027 75.208 18.8792C67.4202 19.9551 64.7535 20.9282 51.5804 20.9282C51.5804 20.9282 46.7614 20.6214 44.2509 18.8279C41.7396 17.0343 38.9696 14.8299 33.2301 15.4956C33.2301 15.4956 28.1563 12.8289 26.4662 10.984C24.772 9.13847 20.2645 5.60341 20.2645 5.60341C20.2645 5.60341 20.2565 5.58741 20.2364 5.55939C20.069 5.26858 19.1446 3.64646 18.7257 2.06769C18.2635 0.326167 17.4944 -0.0847032 16.8288 0.0153457C16.1631 0.11873 14.8798 5.08916 14.8798 5.08916C14.8798 5.08916 8.16788 7.19352 7.65363 8.11397C7.14338 9.03842 6.68115 10.6252 6.68115 10.6252C6.68115 10.6252 -0.39364 13.7541 0.0172272 14.882C0.141955 15.2281 0.470783 15.8558 0.864308 16.5614C0.872312 16.6028 0.888321 16.6388 0.923005 16.6655C1.11643 17.009 1.32186 17.3672 1.52797 17.7207C2.26899 18.988 2.99068 20.1599 2.99068 20.1599C2.99068 20.1599 2.96267 20.2079 2.91931 20.2993C2.50845 21.1283 0.583505 25.3971 4.88828 24.9789C4.88828 24.9789 6.06819 25.8993 7.29545 24.0544C7.29545 24.0544 8.73016 24.2098 9.55122 23.6956H9.55389C9.55322 23.6963 9.55256 23.6969 9.55122 23.6976C9.55122 23.6976 9.73264 28.534 12.2919 28.4913C13.231 28.4759 14.7631 27.8143 16.3632 26.7437C16.7047 27.1573 17.0195 27.6242 17.2917 28.1558C19.6475 32.7714 21.8512 36.3064 21.8512 36.3064C21.8512 36.3064 21.8833 36.5299 21.9546 36.9121C22.2774 38.6783 23.386 43.8581 25.6811 46.4667C25.6611 47.3198 25.6978 48.1736 25.7485 49.024C25.8472 50.1639 25.9753 51.3011 26.174 52.4256C26.2807 52.9873 26.3708 53.5502 26.4902 54.1085C26.6216 54.6641 26.7396 55.2223 26.883 55.7746C27.2112 58.4226 27.5627 60.9912 27.8495 62.4445C28.6185 66.3424 28.4631 67.4703 27.8495 68.5949C27.2359 69.7228 27.0685 70.9547 27.0685 70.9547C27.0685 70.9547 26.9484 71.0054 26.717 71.0274C26.835 71.0067 26.9531 70.9841 27.0685 70.9547C26.3648 70.9754 25.6571 70.89 25.0408 70.6312C24.8874 70.5665 24.7427 70.4851 24.6086 70.3938C24.5492 70.3524 24.4512 70.2957 24.3631 70.2457C24.2764 70.189 24.1664 70.175 24.067 70.141C23.6374 70.0656 23.2319 70.2624 22.9411 70.5058C22.3548 71.0207 22.0607 71.7418 21.9386 72.4568C21.8166 73.1878 21.9439 73.8955 22.0073 74.5945C22.0073 74.5945 22.4695 76.0292 23.6975 75.6703C23.6975 75.6703 26.9777 77.065 30.0546 75.7304C30.0546 75.7304 30.3614 74.9333 30.8196 73.9608C31.4253 72.6856 32.2943 71.1148 33.0794 70.6486C34.4627 69.8275 33.2308 67.7271 33.3862 66.085C33.4382 65.5241 34.0552 63.5818 34.8443 61.2693L36.1696 57.6109C36.4077 56.9539 36.6518 56.2982 36.9039 55.6472C37.2114 56.535 37.5082 57.3701 37.783 58.1144C39.8967 63.8426 41.12 66.7907 41.12 66.7907L39.674 70.2944C39.674 70.2944 37.1154 68.3481 36.8933 70.2944C36.8419 70.7459 36.8179 71.1661 36.8106 71.547C36.7859 72.8089 36.9493 73.6307 36.9493 73.6307H43.215C43.916 73.6307 44.4796 73.0771 44.521 72.3774C44.5223 72.3521 44.5263 72.324 44.5277 72.298C44.5897 71.4229 44.8485 70.2917 45.6802 69.46C45.8943 69.2459 46.0537 69.0264 46.1758 68.8036C46.9408 67.4036 46.0644 65.8535 45.6802 64.5102C45.3327 63.2936 46.1391 58.3759 46.0311 54.1085C46.5206 54.0278 47.0329 53.901 47.5671 53.7169C47.7546 53.6529 47.8219 53.4181 47.7065 53.2587L46.5587 51.6846C46.5587 51.6846 53.426 54.3473 60.3974 51.119C63.5183 49.6736 66.4844 48.0648 69.1584 46.7689C69.3698 49.4328 69.9154 52.3963 71.214 54.2192C74.0287 58.1718 79.1339 58.6947 78.2828 63.0148C77.4317 67.3349 77.0389 69.6914 74.7484 69.7568C72.9475 69.8081 71.9164 69.5373 71.747 71.2615C71.7009 71.7311 71.7183 72.3474 71.803 73.1604C71.803 73.1604 71.9958 73.6754 73.243 74.0569C74.3056 74.3817 76.1331 74.6098 79.2646 74.339C79.2646 74.339 85.1555 63.9973 85.0902 61.9683C85.0248 59.9393 81.6865 58.7614 83.0612 55.6846C83.2786 55.1977 83.5441 54.6394 83.8262 54.0278C84.4865 54.606 85.1695 55.1576 85.8699 55.6832C92.4304 60.9125 94.993 60.3982 95.8141 61.1679C96.6311 61.937 98.5801 69.8288 97.5042 70.9567C96.4284 72.0846 93.4029 70.4945 92.9447 72.1366C92.7866 72.6956 92.6959 73.2352 92.6432 73.7061C92.5418 74.6145 92.5858 75.2615 92.5858 75.2615C92.5858 75.2615 94.276 75.7757 95.4039 75.6203C95.4039 75.6203 98.5287 77.4659 102.937 75.4169C102.937 75.4169 103.347 72.8023 103.555 70.2911C103.758 67.7798 104.32 59.3223 102.167 57.7322C100.521 56.519 98.8469 56.4069 98.6768 51.197C98.6248 49.5943 98.7128 47.5152 98.9903 44.7666C100.17 33.0802 98.5281 29.7486 98.5281 29.7486C98.5281 29.7486 98.476 29.401 98.3453 28.8374C99.6179 29.9553 100.831 31.4407 101.524 33.3643C102.092 34.9391 102.492 38.1573 102.916 41.5643C104.206 51.9481 105.973 66.1697 115.394 69.6367C117.713 70.4898 119.788 70.826 121.617 70.826C124.771 70.826 127.195 69.8275 128.884 68.7636C130.001 68.0553 130.336 66.5786 129.631 65.4613ZM26.4768 52.3816C26.4722 52.3403 26.4682 52.2982 26.4635 52.2569C26.4762 52.3656 26.4888 52.4743 26.5015 52.5844C26.4935 52.517 26.4848 52.449 26.4768 52.3816Z" fill="white"/>
</mask>
<g mask="url(#mask0_278_142501)">
<path d="M97.7103 48.4151C98.1992 47.0144 97.5669 45.9078 96.7765 44.8653C96.353 44.3071 95.7994 43.8475 95.3759 43.2892C94.0846 41.5877 93.2061 39.7235 93.2948 37.4871C94.5321 39.9789 95.7914 42.4355 97.9711 44.6639C98.0658 41.8105 97.4135 39.4427 96.0208 37.3877C95.2238 36.2111 94.9003 34.9612 94.5755 33.6699C94.4327 33.1009 94.4194 32.4786 94.4581 31.8877C94.6255 29.3371 94.4874 26.8292 93.3462 24.1646C94.0225 24.5207 94.29 24.8696 94.3667 25.2424C94.6708 26.7218 95.1631 28.1558 95.2024 29.7006C95.2698 32.3292 96.0368 34.7857 97.2288 37.1329C98.2546 39.1532 98.6174 41.3323 98.4567 43.5941C98.372 44.7853 98.3813 45.9752 98.444 47.1685C98.4727 47.7107 98.4013 48.2463 99.099 48.3891C98.6415 49.1721 98.0712 49.3956 97.3902 49.4789C95.64 49.693 94.0565 49.3275 92.6639 48.217C91.8168 47.542 90.9597 46.8803 90.1133 46.2053C89.7318 45.9005 89.3442 45.6297 88.7346 45.6717C88.4818 46.4554 88.5852 47.2592 88.5839 48.0562C88.5812 49.6257 88.7199 51.2104 88.1823 52.7325C88.0409 53.1334 88.0216 53.671 87.568 53.8331C86.1607 54.3366 85.8579 55.4618 85.8979 56.9219C85.0915 55.4925 85.0842 54.4147 85.9833 53.5516C86.8697 52.7005 87.2666 51.7073 87.3373 50.5254C87.3986 49.4989 87.4647 48.4724 87.5527 47.4479C87.6034 46.8556 87.6354 46.2487 87.7921 45.6804C88.1163 44.5065 88.4218 44.3851 89.5323 44.856C90.6382 45.3256 91.6694 45.9172 92.5505 46.7436C93.9872 48.0903 95.7033 48.5651 97.7103 48.4151Z" fill="#70400B"/>
<path d="M80.6067 47.4013C79.8457 46.5049 79.6416 45.6211 79.5662 44.7287C79.3788 42.5069 79.3007 40.2932 80.0104 38.1168C80.5467 36.4713 80.3539 34.7998 79.9531 33.1443C79.6342 31.8264 79.2741 30.5144 79.0386 29.1811C78.5384 26.343 79.2427 23.7071 80.5614 21.2078C80.9642 20.4448 81.273 19.6177 81.9127 18.9968C82.1835 18.734 82.4023 18.4071 82.8725 18.2697C83.0926 18.7306 82.7484 19.0595 82.5643 19.3736C81.8447 20.6029 81.4338 21.9475 81.0243 23.2949C80.486 25.0644 80.9456 26.7606 81.5692 28.3807C82.5944 31.0427 82.4276 33.6139 81.6812 36.3339C80.8929 39.2086 80.6701 42.2088 80.7501 45.2122C80.7681 45.8526 80.9255 46.5082 80.6067 47.4013ZM80.8875 29.718C80.7601 30.7705 80.9436 31.4822 81.3304 32.4033C81.5058 30.8739 81.5058 30.8739 80.8875 29.718Z" fill="#70400B"/>
<path d="M87.693 23.5423C87.2934 26.3363 87.5209 29.0963 87.807 31.9017C88.3273 37.0009 88.1112 42.068 85.7046 46.7936C85.2424 47.7021 84.7455 48.5932 84.4294 49.581C84.0625 50.7276 83.7697 51.8641 83.9018 53.0754C83.9358 53.3902 83.9951 53.7077 83.7377 53.9818C82.9673 53.1834 82.6558 51.9135 83.0047 50.6028C83.3088 49.4603 83.5649 48.2824 84.2253 47.2732C84.8549 46.3121 85.0757 45.3276 84.7088 44.205C84.0605 42.2201 84.2886 40.3191 85.6193 38.6923C86.6431 37.4404 86.3583 36.0084 86.3616 34.6464C86.369 31.9484 86.3836 29.2564 86.6538 26.5684C86.7625 25.4865 86.9499 24.45 87.693 23.5423ZM86.9112 39.384C85.1557 40.5199 84.8302 41.7525 85.6446 43.9402C86.2876 42.4889 86.7258 41.0962 86.9112 39.384Z" fill="#70400B"/>
<path d="M41.9797 16.0472C43.0022 18.327 43.1162 20.5981 42.6894 22.9753C44.0333 21.3025 44.3008 19.2348 44.8424 17.2505C45.276 18.5905 44.9765 19.8664 44.5216 21.0917C44.0307 22.4124 43.3417 23.647 42.5613 24.8242C41.9457 25.7533 41.6235 26.7371 41.7069 27.885C41.7956 29.1163 41.7309 30.3582 41.7562 31.5955C41.8083 34.1481 40.8358 36.4606 40.1101 38.8364C39.5932 40.5299 39.0609 42.2027 37.9304 43.9109C37.6602 42.9811 37.9184 42.3654 38.1351 41.7411C38.7721 39.9042 39.4771 38.094 39.9774 36.2058C40.4349 34.4789 40.5063 32.7667 40.0934 31.0586C39.4965 28.592 39.6645 26.2582 40.7544 23.9331C41.8096 21.682 42.0524 19.2635 41.7449 16.7949C41.7189 16.5902 41.6328 16.3634 41.9797 16.0472ZM41.0806 28.2866C41.0806 29.7813 41.0806 31.276 41.0806 32.7708C41.4394 31.28 41.314 29.7906 41.0806 28.2866Z" fill="#70400B"/>
<path d="M75.9552 42.3503C74.6312 40.2612 74.7319 38.1422 75.2955 36.1232C75.9632 33.7301 75.7171 31.5323 74.7352 29.3246C73.8628 27.3629 73.9448 25.3279 74.3897 23.2836C74.4217 23.1369 74.5398 23.0081 74.7566 22.9134C74.5085 25.5614 74.7059 28.0459 76.3207 30.2924C76.1899 25.5854 76.9096 21.1252 79.717 17.236C79.9598 16.8998 80.1952 16.3342 80.8249 16.4576C81.1457 16.7291 80.9009 16.9779 80.7749 17.1733C78.8419 20.1921 77.6033 23.4684 77.576 27.0641C77.5479 30.7273 76.9823 34.2957 76.1546 37.8361C75.8645 39.0787 75.7137 40.2866 76.1646 41.5139C76.2393 41.7186 76.2246 41.9427 75.9552 42.3503Z" fill="#70400B"/>
<path d="M64.0654 39.3662C62.4546 38.0969 61.5682 36.7062 60.5277 35.461C59.3131 34.0069 59.0142 32.2941 59.3958 30.4178C59.7526 28.661 60.5256 27.0782 61.198 25.252C61.7502 26.3912 61.3641 27.3277 61.0679 28.1534C60.0447 31.0081 60.2035 33.6674 61.979 36.1813C62.3165 36.6596 62.59 37.1831 63.0002 37.8628C63.199 37.3626 63.1663 37.0164 63.0836 36.6876C62.2605 33.4306 62.1278 30.1804 63.0522 26.9108C63.3404 25.8923 63.1002 24.8538 62.7968 23.864C62.3399 22.3739 62.6187 20.9779 63.2356 19.6112C63.6218 18.7555 64.01 18.6287 64.9605 19.0103C65.1566 19.3811 64.8371 19.6079 64.721 19.8954C64.3749 20.7518 64.044 21.6282 64.2335 22.568C64.6203 24.4863 64.4009 26.3645 63.7579 28.1661C62.8248 30.7793 63.1389 33.3893 63.5418 36.0186C63.6945 37.0211 63.8546 38.0222 64.0654 39.3662Z" fill="#70400B"/>
<path d="M33.8515 29.9012C33.2472 32.8066 31.8378 35.4419 31.1468 38.3446C30.3551 41.6709 28.2568 44.3409 25.6461 46.5626C25.316 46.8441 24.9998 47.1469 24.647 47.3971C23.5405 48.1794 22.4939 49.0125 22.019 50.2911C21.5395 50.3091 21.845 49.7589 21.4801 49.7589C21.0426 49.7008 20.9005 50.2324 20.5016 50.2511C20.3322 50.107 20.3916 49.933 20.5223 49.8483C22.0384 48.8651 22.8815 47.4204 23.5911 45.7936C24.2655 44.2482 25.3687 42.9509 26.7127 41.8917C27.1836 41.5208 27.6665 41.0833 28.3054 41.2247C29.1185 41.4041 29.5394 40.8932 29.8902 40.3763C30.2471 39.85 30.5619 39.2764 30.6119 38.5881C30.7566 36.5844 31.2289 34.6522 31.9846 32.7906C32.5529 31.3899 32.6276 29.9879 32.2574 28.4998C31.8792 26.9784 31.6851 25.411 31.4196 23.8615C31.2355 22.7877 31.6111 21.9033 32.4381 21.1249C31.7872 23.5907 32.905 25.8085 33.2712 28.1176C33.3686 28.7326 33.3573 29.4369 33.8835 29.9292L33.8515 29.9012ZM24.0927 46.8234C26.5939 45.208 28.3975 43.3037 28.6169 42.1151C27.0355 42.0571 24.8924 44.2248 24.0927 46.8234Z" fill="#70400B"/>
<path d="M59.2604 19.7558C59.802 19.6865 59.8507 19.0101 60.3236 18.824C60.6745 19.2943 60.2509 19.5684 60.1062 19.8425C59.1878 21.5794 59.1464 23.5303 58.9543 25.3792C58.6195 28.5988 57.7497 31.6436 56.5558 34.5984C55.8475 36.3519 55.574 38.1321 55.4606 39.975C55.4359 40.3826 55.5213 40.8181 55.0704 41.301C54.4208 39.3481 53.9465 37.5552 54.9503 35.6643C55.3772 34.8605 55.6927 33.9895 55.9869 33.1244C56.3984 31.9118 56.2463 30.6625 56.1169 29.4192C55.7761 26.1436 56.5805 23.0955 57.9658 20.162C58.1999 19.6665 58.4861 19.2369 58.9736 18.9948C59.2758 19.2096 59.107 19.5411 59.2651 19.7618C58.5027 20.07 58.6828 20.7777 58.5848 21.3673C57.669 21.9596 57.9852 23.0201 57.7024 23.8425C57.1394 25.4773 57.1141 27.2095 57.3462 28.933C57.607 28.9043 57.701 28.7429 57.7204 28.5975C58.0339 26.2023 58.334 23.8058 58.6368 21.4093C58.9723 20.9051 59.3291 20.4108 59.2604 19.7558Z" fill="#70400B"/>
<path d="M93.5829 46.2133C92.9292 44.7939 92.8178 43.2818 92.5884 41.8005C92.4616 40.9814 92.2395 40.223 91.89 39.4813C91.2457 38.1153 90.6241 36.7387 89.9944 35.3653C89.1987 33.6285 89.0927 31.8062 89.3908 29.9547C89.4962 29.2983 89.4862 28.6954 89.3288 28.0391C89.1307 27.21 89.0767 26.3622 89.2214 25.4705C89.5402 23.5048 89.2527 21.5706 88.375 19.7704C88.0655 19.136 87.8834 18.4857 87.6406 17.8574C88.0468 17.5693 88.2122 17.8601 88.355 18.0382C90.1112 20.2339 91.1477 22.6651 90.7648 25.5499C90.6294 26.5717 90.6921 27.5015 91.0883 28.5393C91.6026 29.8866 91.5839 31.4307 90.8809 32.8101C90.3686 33.8152 90.3866 34.7257 90.9482 35.7208C91.6366 36.9408 92.2162 38.2234 92.8232 39.4887C93.853 41.6351 93.8717 43.9095 93.5829 46.2133ZM89.9898 31.893C90.5094 31.2366 90.6361 30.547 90.3626 29.8126C90.0018 29.7986 89.9978 29.9874 89.9944 30.1321C89.9831 30.719 89.9898 31.306 89.9898 31.893Z" fill="#70400B"/>
<path d="M50.461 48.8395C49.9795 48.4746 50.0615 48.0617 50.0982 47.7202C50.3263 45.6165 49.5779 43.6903 49.147 41.6893C48.5421 38.8786 48.3613 36.0152 49.4545 33.2258C50.0842 31.6197 50.7358 30.0163 51.2381 28.3688C51.5175 27.4523 51.5215 26.4492 51.6269 25.4827C51.6603 25.1785 51.5622 24.8484 51.9664 24.5336C52.7228 26.2457 52.3746 27.8759 51.9531 29.4653C51.5802 30.8707 51.0593 32.238 50.5657 33.6087C50.367 34.1609 50.4924 34.6625 50.5904 35.1981C51.1167 38.0655 51.9011 40.9049 51.6803 43.8624C51.5756 45.259 51.5255 46.6697 51.034 48.009C50.9219 48.3119 50.8219 48.618 50.461 48.8395ZM49.9441 36.6328C49.3345 38.9653 49.804 42.9112 50.8372 44.6547C51.106 41.9181 50.8799 39.3728 49.9441 36.6328Z" fill="#70400B"/>
<path d="M47.0903 39.0492C46.4773 37.7573 46.5007 36.5554 46.6621 35.2981C46.9382 33.151 47.3638 30.9419 46.8795 28.8336C46.3139 26.3677 46.564 24.1673 47.6746 21.9322C48.1862 20.9017 48.3536 19.7005 48.7411 18.3545C49.7082 19.2602 49.5235 20.1653 49.304 21.0138C48.9265 22.4765 48.4876 23.9252 48.0267 25.3646C47.8727 25.8455 47.7973 26.3003 47.9314 26.9387C49.0252 26.0049 49.4321 24.7222 50.1218 23.643C50.8595 22.4871 50.7454 21.0731 51.1469 19.6251C51.5211 20.9551 51.4944 21.7208 51.0902 22.8413C50.5393 24.3674 49.8676 25.8375 48.9365 27.1701C48.3896 27.9525 48.1762 28.8029 48.0641 29.7434C47.7106 32.7015 47.3624 35.6569 47.3844 38.643C47.3844 38.7198 47.2764 38.7971 47.0903 39.0492Z" fill="#70400B"/>
<path d="M66.7711 49.3209C66.2309 47.7762 66.3129 46.2688 66.7258 44.7687C66.9265 44.0383 67.106 43.288 67.4248 42.607C68.1818 40.9915 67.827 39.5275 66.8785 38.1681C66.3949 37.4751 66.1762 36.7114 65.9821 35.931C65.8567 35.4288 65.6773 34.8659 66.3142 34.3203C66.5877 37.0002 69.213 38.4796 69.3304 41.2556C69.6092 41.0295 69.7573 40.9095 70.1221 40.614C70.3749 42.9185 69.3117 44.7694 68.7961 46.7343C68.1725 45.6458 68.7861 44.5899 68.9182 43.5187C67.959 45.3643 66.8558 47.1379 66.7711 49.3209Z" fill="#70400B"/>
<path d="M41.791 51.7583C40.5131 50.4357 40.4364 48.8235 40.7078 47.2221C40.8753 46.2336 41.1034 45.2298 41.6696 44.3147C42.5741 42.852 42.5267 41.2272 42.1345 39.595C41.7497 37.9956 42.1092 36.4742 42.7222 35.0061C42.8962 34.5886 43.107 34.0617 43.8774 34.2024C43.766 35.457 43.173 36.6182 43.2177 37.9362C43.2544 39.0248 43.3445 40.0993 43.5185 41.1571C43.9087 43.531 43.5939 45.7654 42.5794 47.9424C42.0245 49.1284 41.7717 50.4083 41.791 51.7583ZM42.9096 44.0285C41.2581 46.3016 40.9466 47.4035 41.5069 48.8902C41.9224 47.2848 42.9543 45.9635 42.9096 44.0285Z" fill="#70400B"/>
<path d="M26.3753 10.2626C27.157 11.4291 27.043 12.3769 26.0638 13.5162C25.6209 14.0311 24.9706 14.4219 25.0887 15.3264C26.478 14.3272 27.4092 12.7918 29.1714 12.2842C29.1854 12.9699 28.6538 13.0306 28.3683 13.3001C27.5005 14.1158 26.6368 14.9302 25.8551 15.8353C25.4715 16.2789 25.2788 16.7144 25.3228 17.2987C25.4315 18.7267 24.8899 19.9293 24.0015 21.0158C22.8856 22.3805 22.3167 23.9946 21.9865 25.9629C21.6837 24.5336 21.8318 23.4864 22.4841 22.4445C22.9963 21.6261 23.5393 20.8191 24.1482 20.072C24.6892 19.4077 24.8539 18.7454 24.4504 17.9904C24.1442 17.4167 24.1162 16.7464 23.7287 16.1941C23.1117 15.3157 23.2825 14.3946 23.9181 13.6382C24.8025 12.5837 25.8497 11.6646 26.3753 10.2626Z" fill="#70400B"/>
<path d="M70.1105 17.6254C70.8983 18.4985 71.145 19.3922 70.6882 20.4494C70.346 21.2405 70.1265 22.0802 69.7884 22.8819C68.8879 25.0136 68.4571 27.2061 69.1067 29.5192C69.2735 30.1115 69.5676 30.7465 69.2208 31.4214C69.056 31.3941 68.8112 31.4208 68.7619 31.3347C67.9495 29.9194 67.4706 28.3806 67.1518 26.7878C66.9003 25.5346 67.626 24.4807 67.8881 23.3355C68.0415 22.6658 68.393 22.0208 68.7532 21.4232C69.4555 20.2587 70.1592 19.1108 70.1105 17.6254Z" fill="#70400B"/>
<path d="M96.6996 30.928C96.1753 30.2484 96.0933 29.5874 96.0659 28.8764C95.9899 26.9254 95.7578 24.9931 95.1735 23.1162C94.8473 22.0684 94.0156 21.3027 93.6221 20.2882C94.0369 19.9073 94.3357 20.2355 94.5859 20.4763C95.585 21.4374 96.2494 22.6053 96.4341 23.9833C96.5535 24.8744 96.6656 25.7602 96.913 26.6726C97.3426 25.2306 96.5942 23.8626 96.785 22.4105C98.7239 24.3295 98.6912 28.897 96.6996 30.928Z" fill="#70400B"/>
<path d="M28.9339 46.8476C30.2218 46.4074 31.5105 45.9665 32.7991 45.5263C31.932 46.7382 30.592 47.023 29.3788 47.534C28.1335 48.0582 26.8649 48.5278 25.6309 49.0754C24.6051 49.5303 23.7814 50.292 22.969 51.0697C23.5466 50.0232 24.3396 49.2355 25.3388 48.5931C25.791 48.3023 26.6601 48.255 26.47 47.2505C26.4126 46.947 27.0269 46.6662 27.4138 46.4474C28.5904 45.7831 29.7389 45.0774 30.8315 44.2717C32.0301 43.3879 33.1299 42.4608 33.6655 41.0121C33.7322 40.832 33.8296 40.6126 34.0764 40.5659C34.4466 41.6958 33.8776 43.1798 32.535 44.4231C31.4678 45.4103 30.1005 45.9412 28.9339 46.8476Z" fill="#70400B"/>
<path d="M86.2611 18.3752C86.145 19.8192 85.5407 21.0725 84.9971 22.3251C84.5249 23.4129 84.3815 24.4048 84.5869 25.6034C85.1565 28.9276 85.2899 32.2726 84.3395 35.5796C84.1614 36.1985 84.12 36.8569 84.0267 37.4992C83.9653 37.9234 83.9133 38.3449 83.4577 38.7311C83.269 36.6754 83.8492 34.8505 84.4169 33.077C84.7824 31.9338 84.8911 30.8012 84.6596 29.7367C84.3888 28.4888 84.2468 27.1728 83.5824 26.0142C82.9508 24.9137 82.9034 23.7504 83.4597 22.5919C84.1941 21.0665 84.7617 19.4317 86.2611 18.3752Z" fill="#70400B"/>
<path d="M92.3841 59.4833C92.9957 59.3299 93.2351 58.847 93.7154 58.5609C93.1744 60.6439 91.7164 61.8912 89.8955 61.7618C90.7319 60.2657 91.2862 58.7109 91.9572 57.2095C92.2954 56.4525 93.047 56.0416 93.9441 56.0003C95.6983 55.9189 97.3672 55.5294 98.9186 54.4515C99.1167 55.3406 98.4837 55.7088 98.0148 56.0203C97.0677 56.6493 96.0132 57.1882 94.8639 57.2216C93.3599 57.2649 92.5842 57.9632 92.3841 59.4833Z" fill="#70400B"/>
<path d="M17.8454 35.7656C19.3014 34.5103 20.4827 33.107 20.8682 30.8178C19.4522 32.3506 18.6064 34.0954 16.6241 34.4229C17.2251 33.6025 18.0662 33.0336 18.7312 32.2799C20.432 30.3523 21.5852 28.1012 22.7131 25.8274C23.0346 25.1797 23.2741 24.4387 24.2285 24.272C24.3673 25.2838 23.5869 25.8714 23.3301 26.6478C22.5897 28.8909 21.9554 31.1894 20.7682 33.2624C20.2559 34.1575 19.6623 34.9945 18.8119 35.6082C18.5678 35.7843 18.3176 36.0277 17.8454 35.7656Z" fill="#70400B"/>
<path d="M29.406 27.6192C29.2826 26.8434 29.8449 26.2678 29.9062 25.5868C30.0183 24.3416 29.9543 23.123 29.6234 21.883C29.0718 19.816 28.8424 17.6996 29.9856 15.72C30.6433 14.5815 31.5404 13.6937 32.8677 13.4095C33.2385 13.8191 33.0698 14.0692 32.7976 14.3033C30.9187 15.9208 30.2317 17.9671 30.4905 20.413C30.6212 21.6516 30.6226 22.9082 30.6112 24.1561C30.5979 25.6168 30.3311 26.2858 29.406 27.6192Z" fill="#70400B"/>
<path d="M33.8827 29.9294C33.6666 29.3217 33.8454 28.7521 34.0715 28.1972C34.4003 27.3901 34.4803 26.525 34.6838 25.6893C35.0853 24.0425 35.0039 22.4157 34.7418 20.7429C34.3876 18.4851 34.9319 16.3561 36.2152 14.4471C36.4313 14.1263 36.5727 13.5914 37.2797 13.8675C37.3791 14.5779 37.2043 15.3156 36.9435 15.9839C36.1271 18.0749 35.8623 20.2326 35.6956 22.4637C35.5048 25.0143 35.3141 27.6342 33.8494 29.9C33.8507 29.9014 33.8827 29.9294 33.8827 29.9294Z" fill="#70400B"/>
<path d="M29.8549 54.6715C30.1991 53.9932 30.7454 53.637 31.5044 53.5296C32.1441 53.4389 32.7664 53.2314 33.404 53.1181C35.1429 52.8086 36.3161 51.7847 37.0898 50.2473C37.1845 50.0586 37.2105 49.8318 37.442 49.7431C37.8829 51.9822 37.1725 53.755 35.1895 54.41C32.9651 55.145 30.63 55.5459 28.2188 55.8421C28.7764 55.4372 29.334 55.033 29.893 54.6268C30.7387 55.0097 31.1676 54.9743 32.6703 54.4C31.7012 54.1652 30.7741 54.3753 29.8549 54.6715Z" fill="#70400B"/>
<path d="M27.9638 34.1062C27.2408 36.2113 26.2323 38.0562 24.9944 39.7183C23.655 41.5152 22.6506 43.3514 22.6946 45.6459C22.6972 45.7819 22.7066 45.9794 22.3384 46.0134C21.8001 44.8368 21.7835 43.5996 22.195 42.3716C22.5031 41.4525 22.8593 40.5381 23.4323 39.7343C24.6262 38.0622 25.8608 36.4187 26.944 34.6685C27.0981 34.4204 27.2908 34.0962 27.9638 34.1062Z" fill="#70400B"/>
<path d="M46.4733 36.0419C47.0169 36.8343 46.6387 37.5266 46.542 38.1862C46.3726 39.3388 46.554 40.3426 47.4325 41.1544C48.6744 42.3023 48.8818 43.773 48.6371 45.3217C48.5157 46.0908 48.6644 46.9339 48.2255 47.6369C47.6526 47.5882 47.758 47.1806 47.7506 46.8992C47.7313 46.1408 47.746 45.3804 47.776 44.6221C47.816 43.6289 47.4478 42.8585 46.6914 42.2029C44.9719 40.7122 44.7345 39.6029 45.6469 37.4886C45.8517 37.0123 45.8524 36.4121 46.4733 36.0419Z" fill="#70400B"/>
<path d="M47.0057 55.5826C46.7976 57.6163 45.3662 58.2273 44.0322 58.7922C43.1098 59.1824 42.09 59.3545 41.0314 58.9356C40.5112 58.7295 39.8515 58.9036 39.2619 58.8402C38.6449 58.7742 37.9513 58.7428 37.8485 57.7177C39.5407 58.2973 40.9707 57.591 42.4355 57.1081C43.9002 56.6258 45.3622 56.1322 47.0057 55.5826ZM42.5175 58.3467C44.3564 58.1953 44.6692 58.0478 45.9011 56.7272C44.5538 57.3722 43.536 57.8598 42.5175 58.3467Z" fill="#70400B"/>
<path d="M58.2862 48.701C57.788 48.0567 57.5452 47.4104 57.5705 46.6387C57.5899 46.0617 57.4792 45.4268 57.2377 44.9045C56.5981 43.5218 56.6127 42.0918 56.6508 40.6237C56.6721 39.81 56.9356 39.1877 57.6766 38.5067C58.8819 41.9224 59.2354 45.2647 58.2862 48.701ZM57.7533 43.7339C57.9314 42.5674 58.0114 41.3781 57.109 40.383C57.2771 41.4955 57.1423 42.6534 57.7533 43.7339Z" fill="#70400B"/>
<path d="M78.5208 57.0646C80.1169 57.5341 81.4223 57.1073 82.6775 57.3174C82.8036 57.875 82.4087 57.9283 82.1166 57.961C80.7679 58.1124 79.3672 58.2445 78.1633 57.5281C76.9908 56.8311 76.0083 57.1913 75.0111 57.7529C74.4022 58.0958 73.8652 58.556 73.3656 59.0596C73.1422 59.285 72.7994 59.3857 72.4852 59.1243C73.2596 57.0959 74.4155 56.3696 76.5025 56.5777C76.9294 56.6204 77.3809 56.7278 77.7805 56.5023C79.2592 55.6692 80.942 55.5538 82.5681 55.1703C81.6951 56.5183 80.0656 56.3676 78.5208 57.0646Z" fill="#70400B"/>
<path d="M87.5926 58.7942C88.5017 57.697 89.1761 56.5057 89.3048 55.0517C89.3428 54.6262 89.4909 54.2093 89.6069 53.7931C89.8851 52.7973 90.5347 52.2363 91.5759 52.165C92.2229 52.1203 92.8712 52.0676 93.5189 52.0656C95.0683 52.0596 96.6204 52.1543 98.1665 51.8755C97.0026 52.5231 95.6746 52.351 94.4467 52.6612C94.0858 52.7526 93.6869 52.6845 93.3174 52.7546C90.8609 53.2215 90.9396 53.0921 90.5421 55.3645C90.3186 56.6418 89.5696 57.6236 88.7605 58.5668C88.4577 58.9209 88.0469 59.037 87.5926 58.7942Z" fill="#70400B"/>
<path d="M25.8047 26.0756C26.399 27.9625 26.0489 29.69 25.059 31.3115C24.7789 31.7697 24.4281 32.1885 24.0786 32.5994C23.5143 33.2631 23.1074 33.9461 22.8806 34.8418C22.4711 36.4626 21.4133 37.7646 20.2674 39.0806C19.9552 38.3082 20.5015 37.966 20.7783 37.5545C21.568 36.3839 22.3951 35.2454 22.1836 33.7066C22.1396 33.3858 22.2323 33.057 22.4598 32.7955C24.1533 30.8532 25.5446 28.7602 25.8047 26.0756Z" fill="#70400B"/>
<path d="M61.5249 40.6425C62.8442 41.2227 62.5434 42.2953 62.7875 43.0943C62.8903 43.4325 62.7729 43.844 62.7289 44.2195C62.5208 45.9911 62.4034 47.7566 63.1017 49.4441C62.5288 49.8563 62.1959 49.6349 61.9371 49.2347C61.1754 48.0568 60.8633 46.7501 61.078 45.3761C61.3142 43.8567 61.8524 42.384 61.5249 40.6425Z" fill="#70400B"/>
<path d="M76.4406 52.0018C76.4112 53.3238 75.4955 54.0375 74.6697 54.6044C72.8448 55.857 70.7531 56.456 68.5254 56.528C69.3398 55.6496 70.531 55.665 71.5829 55.1721C70.9846 54.2709 70.1469 55.1961 69.4865 54.8119C69.768 54.0628 70.4623 54.0408 71.0293 54.1049C73.0289 54.3316 74.6604 53.7627 75.9083 52.1532C75.9797 52.0592 76.1865 52.0692 76.4406 52.0018Z" fill="#70400B"/>
<path d="M72.5902 28.759C71.6845 26.039 72.4435 23.4084 73.1252 20.7971C73.4854 19.4164 74.5552 18.1871 75.7098 17.6522C73.7648 21.2433 72.6489 24.8411 72.5902 28.759Z" fill="#70400B"/>
<path d="M53.883 28.854C53.7636 26.2614 54.1338 23.7329 55.0789 21.319C55.3344 20.6654 55.6612 19.9143 56.7951 19.6595C56.5043 21.371 55.6632 22.7451 55.2677 24.2458C54.8622 25.7832 54.7781 27.4187 53.883 28.854Z" fill="#70400B"/>
<path d="M11.6253 19.1795C13.0467 18.2577 13.4969 17.2512 13.1547 15.7558C12.7425 13.9543 12.7445 13.9089 13.3448 12.5583C13.6963 13.8802 14.0352 15.0875 14.3327 16.3048C14.4907 16.9524 14.454 17.5987 14.0539 18.177C13.1061 19.5463 11.8414 20.6262 10.6742 22.0956C10.4014 20.7022 11.7174 20.1586 11.676 19.1281C11.6767 19.1268 11.6253 19.1795 11.6253 19.1795Z" fill="#70400B"/>
<path d="M66.5283 51.8493C68.4039 50.0557 70.8037 50.0197 72.9515 49.3607C73.331 49.9944 72.9935 50.2325 72.7013 50.4499C72.1304 50.8748 71.4601 51.1156 70.7864 51.2957C69.9527 51.5191 69.1289 51.7199 68.3552 52.1427C67.7529 52.4709 67.0572 52.6583 66.5283 51.8493Z" fill="#70400B"/>
<path d="M28.4502 60.3558C28.2788 59.8662 28.5816 59.6822 28.8524 59.5187C29.6428 59.0425 30.4525 58.641 31.3856 58.4602C32.6849 58.2088 34.0489 58.1941 35.4122 57.2523C35.2035 58.5889 34.5105 59.0972 33.5874 59.3133C32.5328 59.5601 31.463 59.7642 30.3885 59.8923C29.7188 59.971 29.1632 60.5893 28.4502 60.3558Z" fill="#70400B"/>
<path d="M99.3407 62.4262C99.358 63.3507 98.8711 63.8142 98.2021 63.8963C96.7254 64.0763 95.5061 64.5946 94.6937 65.9052C94.5797 66.0887 94.3182 66.0813 94.1115 65.9479C94.4923 63.4007 95.4935 62.7103 99.3407 62.4262Z" fill="#70400B"/>
<path d="M24.0583 8.50419C24.0856 8.60224 24.1543 8.71162 24.1316 8.797C24.0916 8.94574 24.0323 9.1405 23.9169 9.2092C22.4902 10.0623 21.2836 11.1695 20.1604 12.3814C20.1257 12.4188 19.9696 12.3427 19.8709 12.3194C19.8109 9.97424 21.5477 8.39213 24.0583 8.50419Z" fill="#70400B"/>
<path d="M10.2577 9.41743C8.76165 8.93786 7.81519 9.79428 6.64528 10.688C7.65311 8.84582 8.1747 8.535 10.0923 8.60837C10.6259 8.62905 10.918 8.1348 11.5644 8.11746C11.0748 9.41143 12.7469 10.3506 11.9352 12.0287C11.5237 10.7754 10.4051 10.3926 10.2577 9.41743Z" fill="#70400B"/>
<path d="M6.03223 15.9967C6.97402 15.3651 7.63301 15.7879 8.28266 15.9233C8.75356 16.0214 9.19311 16.2662 9.66334 16.3769C10.4471 16.561 10.996 16.3075 11.3348 15.5078C11.5549 14.9889 11.603 14.4806 11.6416 13.943C11.6783 13.4335 11.4829 12.8852 11.8264 12.3929C12.9063 13.5062 12.9583 14.3105 12.0412 15.3844C11.9364 15.5065 11.7964 15.6005 11.7023 15.7286C10.5671 17.2747 10.0288 17.4734 8.36937 16.7751C7.6777 16.4843 6.96735 16.2715 6.03223 15.9967Z" fill="#70400B"/>
<path d="M99.2101 56.8366C99.2087 58.7902 98.0041 59.708 95.5363 59.7373C96.7409 58.6221 98.2716 58.1145 99.2101 56.8366Z" fill="#70400B"/>
<path d="M33.2228 60.2357C31.564 61.0555 29.7944 61.3816 28.0049 61.6424C29.5443 60.4478 31.3632 60.2351 33.2228 60.2357Z" fill="#70400B"/>
<path d="M78.0743 60.7914C77.9502 61.0016 77.9175 61.1436 77.8395 61.1763C76.7276 61.6399 75.6091 62.0894 74.4238 62.5697C74.7487 61.163 76.5742 60.2865 78.0743 60.7914Z" fill="#70400B"/>
<path d="M9.60319 19.9973C9.60386 19.2783 9.74126 18.686 10.549 18.3938C11.3641 18.099 11.5962 17.2606 11.981 16.3822C12.5099 17.0165 12.3405 17.5414 12.1224 18.0483C11.9603 18.4258 11.5168 18.6793 11.6255 19.1789C11.6255 19.1789 11.6769 19.1268 11.6762 19.1282C10.7984 18.9648 10.1795 19.463 9.55783 19.9546L9.60319 19.9973Z" fill="#70400B"/>
<path d="M71.3965 42.389C71.83 43.7937 71.139 44.8749 70.376 45.9361C70.414 44.6668 70.8195 43.5036 71.3965 42.389Z" fill="#70400B"/>
<path d="M23.3847 10.5899C22.8278 11.7372 21.7792 12.4255 20.8748 13.2486C21.257 11.9379 22.1954 11.1475 23.3847 10.5899Z" fill="#70400B"/>
<path d="M41.1278 60.8665C42.6565 60.7431 43.8158 60.6491 45.0704 60.5477C44.2166 61.4875 42.984 61.6202 41.1278 60.8665Z" fill="#70400B"/>
<path d="M10.0666 12.4103C10.6489 13.0673 11.2585 13.7016 10.3914 14.9002C10.4508 13.8084 9.9752 13.1607 10.0666 12.4103Z" fill="#70400B"/>
<path d="M5.35626 16.8792C4.48317 17.3254 4.0036 17.9323 2.91773 17.863C3.62875 17.1199 4.21237 16.7384 5.35626 16.8792Z" fill="#70400B"/>
<path d="M6.41609 17.4085C5.543 17.8547 5.06343 18.4617 3.97757 18.3923C4.68858 17.6499 5.2722 17.2678 6.41609 17.4085Z" fill="#70400B"/>
<path d="M6.68077 18.4077C5.80767 18.854 5.32811 19.4609 4.24224 19.3915C4.95326 18.6492 5.53688 18.2677 6.68077 18.4077Z" fill="#70400B"/>
<path d="M9.55821 19.9547C9.7423 21.0059 9.07931 20.6564 8.52237 20.641C8.73248 20.0241 9.32543 20.3069 9.60757 20.0014C9.6029 19.9974 9.55821 19.9547 9.55821 19.9547Z" fill="#70400B"/>
</g>
<path d="M26.173 52.4246C26.2797 52.9863 26.3697 53.5492 26.4891 54.1075C26.6205 54.6637 26.7386 55.2213 26.8827 55.7736C26.7633 54.6371 26.6019 53.5112 26.4771 52.3813C26.3511 51.2514 26.2343 50.1229 26.145 48.993C26.0676 47.8624 26.0149 46.7312 26.0276 45.6006C26.0402 45.0357 26.0629 44.4701 26.1376 43.9105C26.201 43.3509 26.2904 42.7853 26.5211 42.2637C26.209 42.7479 26.0749 43.3229 25.9462 43.8791C25.8301 44.4427 25.7728 45.015 25.7228 45.5873C25.636 46.7332 25.6794 47.8804 25.7474 49.023C25.8461 50.1629 25.9749 51.3001 26.173 52.4246Z" fill="#3A1E03"/>
<path d="M38.8953 51.4021C38.9854 51.2487 39.0194 51.0733 39.0794 50.9092C39.1021 50.7384 39.1501 50.5663 39.1488 50.3949C39.1808 49.7066 39.0261 49.0409 38.808 48.4153C38.5865 47.7937 38.2964 47.2114 37.9482 46.6471C37.5086 45.7066 37.3659 44.6334 37.2965 43.5796C37.2358 42.5171 37.2639 41.4445 37.3472 40.3767C37.5167 38.239 37.8642 36.1113 38.3124 34.0049C38.0069 35.0388 37.7701 36.0913 37.552 37.1484C37.3366 38.2063 37.1812 39.2762 37.0631 40.3507C36.9404 41.4252 36.8863 42.5117 36.945 43.5996C37.0071 44.6821 37.1358 45.7887 37.602 46.8158L37.6054 46.8238L37.614 46.8378C37.9415 47.3721 38.215 47.9584 38.4378 48.548C38.6525 49.141 38.7986 49.764 38.7759 50.3749C38.7799 50.529 38.7366 50.6737 38.7212 50.8245C38.6692 50.9625 38.6452 51.1146 38.5698 51.2413C38.4518 51.4901 38.2257 51.7869 38.0869 52.0764C37.7788 52.66 37.5106 53.2563 37.2725 53.8633C36.3227 56.2911 35.5704 58.7764 34.8433 61.2689L36.1693 57.6085C36.6115 56.3899 37.0644 55.1746 37.5753 53.988C37.8288 53.3944 38.0916 52.8048 38.3978 52.2458C38.5432 51.951 38.7246 51.7356 38.8953 51.4021Z" fill="#3A1E03"/>
<path d="M55.0526 35.4316C54.5977 35.6777 54.1388 35.9178 53.6932 36.1813C52.7955 36.6962 51.9184 37.2458 51.0613 37.8241C49.3391 38.9713 47.719 40.2613 46.1395 41.5906C45.3485 42.2549 44.5881 42.9546 43.8377 43.6636C43.1014 44.366 42.371 45.0723 41.6814 45.8233C40.8636 45.5892 40.0466 45.3511 39.2255 45.127C40.0419 45.4198 40.8623 45.6979 41.6814 45.9808L41.7234 45.9954L41.7587 45.9607C43.2315 44.526 44.7802 43.1674 46.3616 41.8554C47.9411 40.5394 49.5859 39.3062 51.2767 38.1423C52.9655 36.975 54.7357 35.9278 56.5753 35.0234C58.4169 34.125 60.3592 33.4126 62.3922 33.0584C60.3371 33.2665 58.3362 33.9095 56.4546 34.7646C55.9797 34.9714 55.5181 35.2048 55.0526 35.4316Z" fill="#3A1E03"/>
<path d="M80.7037 50.1668C79.2724 48.0904 78.2012 45.7913 77.2941 43.4355C76.8272 42.2623 76.405 41.071 76.0235 39.8664C75.6353 38.6632 75.3138 37.4399 74.9496 36.2233C74.7688 35.6143 74.5854 35.0047 74.36 34.4057L74.1819 33.9595C74.1032 33.8141 74.0345 33.6627 73.9464 33.5246C73.759 33.2539 73.5449 33.0024 73.2908 32.7996C72.2683 31.9866 70.9883 31.6297 69.7351 31.503C70.973 31.7158 72.2303 32.12 73.1641 32.9464C73.3975 33.1491 73.5923 33.3886 73.7577 33.644C73.8357 33.7748 73.8937 33.9155 73.9631 34.0502L74.1252 34.4918C74.3293 35.0854 74.4947 35.6957 74.6568 36.3067C75.2851 38.7592 75.9994 41.2104 76.9246 43.5816C77.8657 45.9394 78.9496 48.2752 80.4536 50.3442C81.2033 51.3774 82.0424 52.3438 82.9528 53.2329C83.876 54.11 84.8558 54.9204 85.8703 55.6815C83.9387 54.0393 82.1144 52.2591 80.7037 50.1668Z" fill="#3A1E03"/>
<path d="M25.3913 72.1289C25.1499 72.0842 24.8791 72.0035 24.5876 71.9795C24.4395 71.9695 24.2714 71.9715 24.1014 72.0388C23.9313 72.1062 23.7919 72.2523 23.7212 72.3937C23.5644 72.6812 23.5298 72.9646 23.5031 73.2408C23.4764 73.5189 23.4744 73.789 23.4777 74.0592C23.4924 74.5968 23.5044 75.155 23.6965 75.6686C23.6431 75.1344 23.7265 74.6021 23.7692 74.0725C23.7959 73.807 23.8239 73.5409 23.8606 73.2855C23.9019 73.0333 23.9526 72.7719 24.0607 72.5891C24.2294 72.2129 24.797 72.417 25.3446 72.4817C25.9209 72.5404 26.4979 72.3957 26.9668 72.0762L26.9794 72.0675L26.9828 72.0629C27.1375 71.8608 27.2983 71.6647 27.4457 71.4552C27.2496 71.6086 27.0662 71.7747 26.8774 71.9355C26.4092 72.1409 25.8782 72.2096 25.3913 72.1289Z" fill="#3A1E03"/>
<path d="M24.4195 70.6856C24.5803 70.7856 24.753 70.863 24.9298 70.9197C25.6368 71.1551 26.3831 71.1265 27.0681 70.9537C26.3645 70.9744 25.6568 70.889 25.0405 70.6302C24.8871 70.5655 24.7423 70.4841 24.6083 70.3928C24.5489 70.3514 24.4509 70.2947 24.3628 70.2447C24.2761 70.188 24.1661 70.174 24.0667 70.14C23.6371 70.0646 23.2316 70.2614 22.9408 70.5048C22.3545 71.0197 22.0604 71.7408 21.9383 72.4558C21.8162 73.1868 21.9436 73.8945 22.007 74.5935C22.0503 74.242 22.0677 73.8865 22.0997 73.5363C22.1117 73.1881 22.1657 72.8493 22.2431 72.5185C22.4132 71.8681 22.7107 71.2252 23.1976 70.8096C23.4344 70.6035 23.7272 70.4728 24.0053 70.5115C24.1507 70.5388 24.2554 70.5875 24.4195 70.6856Z" fill="#3A1E03"/>
<path d="M40.8296 71.041C40.7382 71.1357 40.6201 71.2418 40.5401 71.2518C40.334 71.2811 40.0292 71.1944 39.7611 71.1004L38.9133 70.8062C38.7666 70.7609 38.6178 70.7175 38.4537 70.6882C38.3744 70.6722 38.2823 70.6648 38.1856 70.6655C38.1243 70.6775 38.0789 70.6762 38.0049 70.7082C37.9202 70.7475 37.8761 70.8116 37.8468 70.8602C37.7434 71.0637 37.7467 71.2191 37.7341 71.3805C37.7267 71.5392 37.7347 71.694 37.7474 71.8474C37.7968 72.4584 37.9268 73.0493 38.0982 73.6289C38.0782 73.026 38.0529 72.425 38.0569 71.8374C38.0609 71.6906 38.0682 71.5452 38.0809 71.4052C38.0936 71.2711 38.1249 71.1177 38.1669 71.0563C38.1683 71.0543 38.1683 71.055 38.1696 71.053C38.1716 71.0537 38.195 71.0523 38.2043 71.0483C38.2577 71.051 38.315 71.0543 38.3824 71.0697C38.5131 71.0957 38.6518 71.1384 38.7906 71.1851C39.0707 71.2718 39.3535 71.3752 39.649 71.4605C39.9485 71.5292 40.2433 71.646 40.6295 71.5486C40.8389 71.4665 40.9303 71.3331 41.0317 71.2051C41.1237 71.073 41.1978 70.9363 41.2638 70.7969C41.3852 70.5141 41.4899 70.2286 41.5519 69.9318C41.4059 70.1966 41.2665 70.4614 41.0937 70.7008C41.0117 70.8216 40.925 70.9389 40.8296 71.041Z" fill="#3A1E03"/>
<path d="M96.7082 72.3757C96.4661 72.4051 96.2259 72.4391 95.9938 72.4377C95.8791 72.4377 95.763 72.4364 95.6677 72.4131C95.6383 72.4111 95.5136 72.373 95.4082 72.3937C95.2922 72.4137 95.1948 72.4884 95.1361 72.5625C95.0234 72.7159 94.9947 72.8613 94.9687 72.9974C94.9467 73.1341 94.9373 73.2662 94.9373 73.3969C94.9407 73.6577 94.9593 73.9118 95.002 74.1619C95.0807 74.6615 95.2054 75.1524 95.4035 75.6166C95.3675 75.1151 95.3308 74.6215 95.3115 74.1319C95.3068 73.8871 95.2968 73.6443 95.3148 73.4082C95.3255 73.1828 95.3622 72.916 95.4482 72.8106C95.4983 72.7732 95.4362 72.7726 95.5916 72.7946C95.7397 72.8233 95.8751 72.8239 96.0078 72.8139C96.2726 72.7919 96.5248 72.7466 96.7702 72.6792C97.2604 72.5471 97.7307 72.3664 98.1756 72.1276C97.6787 72.2103 97.1918 72.305 96.7082 72.3757Z" fill="#3A1E03"/>
<path d="M74.8096 71.1069C74.6008 71.0789 74.4127 70.9982 74.1359 70.9595C73.8791 70.9222 73.5456 71.0115 73.3529 71.2403C73.1641 71.4651 73.0974 71.7219 73.0534 71.9614C73.0147 72.2055 73.0094 72.4422 73.018 72.6777C73.0401 73.1473 73.1168 73.6055 73.2428 74.0537L73.3289 72.6837C73.3562 72.4623 73.3689 72.2388 73.4236 72.0327C73.4689 71.828 73.537 71.6265 73.6517 71.5025C73.7577 71.3744 73.9125 71.3237 74.1079 71.3337C74.2873 71.3357 74.5375 71.4191 74.7882 71.4151C75.2832 71.4311 75.8067 71.185 76.0195 70.7594C75.6713 71.0749 75.2231 71.1663 74.8096 71.1069Z" fill="#3A1E03"/>
</svg>
