<svg width="40" height="40" viewBox="0 0 40 40" fill="none" xmlns="http://www.w3.org/2000/svg">
<path d="M15.2617 31.2857V29.5079C15.2617 28.2077 16.3216 27.1514 17.6347 27.1427H22.4448C23.7643 27.1427 24.8338 28.2015 24.8338 29.5079V34.6349C24.8335 35.7387 25.7235 36.6409 26.8382 36.6667H30.0448C33.2415 36.6667 35.833 34.1012 35.833 30.9364V16.3964C35.816 15.1514 35.2255 13.9823 34.2297 13.2218L23.2625 4.47554C21.3413 2.95265 18.61 2.95265 16.6887 4.47554L13.959 6.66605" stroke="#7770FE" stroke-width="1.5" stroke-linecap="round" stroke-linejoin="round"/>
<path d="M14.8281 36.6666H9.95469C6.75797 36.6666 4.1665 34.1011 4.1665 30.9363V16.4122C4.17882 15.166 4.77027 13.995 5.76989 13.2375L8.49962 11.047" stroke="#7770FE" stroke-width="1.5" stroke-linecap="round" stroke-linejoin="round"/>
</svg>
